# xmcd
#
# Track frame offsets:
#	150
#	15657
#	30805
#	48272
#	64890
#	77785
#	95475
#	107297
#	124295
#	139597
#	154067
#	167692
#	182580
#	199885
#
# Disc length: 2851 seconds
#
# Revision: 0
# Processed by: cddbd v1.5.2PL0 Copyright (c) Steve Scherf et al.
# Submitted via: dBpowerAMP V4.0
#
DISCID=ab0b210e
DTITLE=The Skeeters - Easy For The Takin'
DYEAR=2004
DGENRE=Country
TTITLE0=Easy For The Takin'
TTITLE1=Tryin' To Get There
TTITLE2=The Road
TTITLE3=Jester Of Life
TTITLE4=I Have Just Begun
TTITLE5=Johnny
TTITLE6=Cut Me Down (And Turn Me Loose)
TTITLE7=Alabama Love Song
TTITLE8=Mother Trucker
TTITLE9=Memory Lane
TTITLE10=Dodgin' The Blues
TTITLE11=Cowboy
TTITLE12=After The Fact
TTITLE13=Honky Tonkin'
EXTD=
EXTT0=
EXTT1=
EXTT2=
EXTT3=
EXTT4=
EXTT5=
EXTT6=
EXTT7=
EXTT8=
EXTT9=
EXTT10=
EXTT11=
EXTT12=
EXTT13=
PLAYORDER=
